Patient4_TMGait_0pt6_02_left_02_EMG.mot
version=1
nRows=33
nColumns=33
inDegrees=no
endheader
time	1LAddLong	2LGlutMax	3LGlutMed	4LIliopsoas	5LSemiMemb	6LBicFemLong	7LRecFem	8LVastMed	9LVastLat	10LGasMed	11LTibAnt	12lTibPost	13LPeroneusLong	14LSol	15LExtDigLong	16LFlexDigLong	17RAddLong	18RGlutMax	19RGlutMed	20RIliopsoas	21RSemiMemb	22RBicFemLong	23RRecFem	24RVastMed	25RVastLat	26RGasMed	27RTibAnt	28RTibPost	29RPeroneusLong	30RSol	31RExtDigLong	32RFlexDigLong
2.27	-0.066376	-0.025177	-0.1149	-0.007172	0.003357	0.098419	0.13992	0.017242	-0.1767	0.045319	0.10346	0.011444	0.020294	0.15152	0.17502	0.018921	0.005188	0.089111	1.5372	-0.065765	0.055237	0.77042	-0.15595	-0.068665	-0.03891	-0.011444	0.12161	-0.003967	0.023651	0.49774	0.005493	-0.001526
2.271	0.034943	0.025635	-0.095062	-0.006714	0.003204	0.073853	0.26779	0.012054	-0.17654	0.011292	0.064697	0.01236	0.029449	0.12482	0.063477	0.018768	0.007477	0.1268	1.9347	0.019379	0.12573	0.53986	-0.2301	-0.36148	-0.08606	-0.013123	0.023041	-0.005646	-0.72876	0.54688	0.008545	0.003662
2.272	-0.013428	0.040588	-0.095673	-0.008698	0.006866	0.052185	0.31006	0.010834	-0.18433	0.004425	0.017395	0.013123	0.021362	0.092621	-0.10986	0.010986	0.010834	0.092621	1.8501	0.14679	0.02243	0.070343	-0.12955	-0.32257	-0.060425	-0.013428	-0.13046	-0.003052	-2.1407	0.27725	0.00885	0.003662
2.273	-0.002441	0.03006	-0.10483	-0.013428	0.007629	0.040436	0.23132	0.012817	-0.18616	0.016022	-0.010223	0.016327	0.017395	0.053253	-0.16907	-0.005951	0.020447	0.081482	1.9582	0.09201	-0.16083	-0.11108	0.13657	-0.14984	-0.042572	-0.014038	0.04425	-0.003357	-0.26047	0.14999	0.003967	0.006866
2.274	0.008392	0.077209	-0.10529	-0.015869	0.006104	0.047913	0.15182	0.016937	-0.19928	0.003815	-0.019684	0.011139	0.016632	0.021057	-0.1709	0.005188	0.006714	0.045013	2.1611	-0.014496	-0.10986	0.079346	0.2655	0.05661	-0.13565	-0.029602	0.23361	-0.009003	0.94772	0.35675	0.008392	-0.007324
2.275	0.005951	0.038605	-0.099487	0.007477	0.004425	0.035095	0.052032	0.018768	-0.21164	0.011902	0.023041	0.009003	0.023041	0.024872	0.14069	0.009003	0.011749	-0.024109	1.8648	-0.14786	0.075989	0.19089	0.24979	0.22018	-0.15213	-0.023804	-0.027313	-0.002289	-0.56305	0.14771	0.003815	-0.001526
2.276	0.007935	0.045319	-0.095673	0.007477	0.001373	0.040741	-0.007935	0.017853	-0.21729	0.026245	0.10407	0.012665	-0.005188	0.046539	-0.046997	0.023041	0.007019	-0.043488	1.6158	-0.16602	0.11795	0.08606	0.2034	0.43167	-0.16327	-0.006256	0.035706	0.001526	-1.3042	0.11414	0.007324	-0.00061
2.277	0.011139	0.046692	-0.095825	-0.00473	0.014038	0.020752	-0.097656	0.016022	-0.2179	0.019531	0.023499	0.010223	0.016785	0.121	0.40665	0.023041	-0.030212	-0.001221	1.5532	-0.089111	-0.049133	0.048981	0.06546	0.43152	-0.16403	-0.005646	0.039063	-0.00351	-0.76828	0.20813	0.006256	-0.011139
2.278	0.011597	0.055695	-0.083618	-0.013123	0.004578	0.017242	-0.094757	0.016479	-0.21408	0.000916	-0.07843	0.015106	0.06485	0.1387	0.069122	0.027313	-0.036621	0.093994	1.6576	-0.002289	0.092163	-0.079498	-0.040588	0.30762	-0.22919	-0.015564	-0.10849	-0.000305	1.4848	0.29297	0.004883	-0.004272
2.279	0.015259	0.078583	-0.049133	-0.013733	0.007019	0.009155	-0.024109	0.019684	-0.21149	-0.002747	-0.21622	0.001678	0.028839	0.13245	0.045929	0.018158	-0.013733	0.15137	1.1571	0.14023	0.18188	-0.11337	0.072021	0.12894	-0.14938	-0.025024	0.023041	-0.002441	1.096	0.26215	0.003815	-0.003357
2.28	0.005341	0.042725	-0.065308	0.001373	0.005188	0.003052	0.16266	0.022736	-0.21652	0.011902	0.13214	0.008392	-0.034637	0.14343	0.18265	0.005798	0.007324	0.019836	0.83771	0.14404	0.13214	-0.036774	-0.000458	0.026398	0.005646	-0.019226	0.15686	-0.003052	0.8963	0.039063	0.007629	0.000763
2.281	0.006714	0.027618	-0.10864	-0.008698	0.001373	0.014343	0.19836	0.016937	-0.26306	-0.000458	0.16846	0.006714	-0.012665	0.1326	0.008698	0.005493	0.004272	-0.04364	1.0849	0.036316	0.078888	-0.077972	-0.42694	-0.004883	0.17548	-0.013428	0.21347	0.00061	0.024872	-0.011139	0.006104	-0.007324
2.282	0.00824	0.020294	-0.12573	0.018616	0.00351	0.001068	0.1358	0.009155	-0.31632	-0.016174	0.1799	0.011292	0.033112	0.14679	-0.003967	0.009918	-0.006866	-0.010529	1.1804	0.031433	0.034943	-0.14862	-0.51819	-0.02594	0.19073	-0.016174	0.21454	-0.003357	-0.28763	-0.017853	0.005188	0.007324
2.283	0.015259	0.037384	-0.11169	0.047913	0.00473	0.007629	0.018158	0.016632	-0.31494	-0.028381	0.14069	0.010681	0.049744	0.12207	-0.23529	-0.004578	-0.015106	0.036926	1.2538	0.068359	-0.003967	-0.12878	-0.59128	-0.11215	0.076904	-0.011597	0.13641	0.001831	-0.34058	-0.051117	0.001831	-0.000916
2.284	0.009766	0.001068	-0.10727	0.060883	0.000305	-0.006866	-0.078583	0.018768	-0.32532	-0.017242	0.10925	0.010681	0.023804	0.034943	-0.48096	0.004883	0.004425	0.03952	1.2349	0.15533	-0.02533	-0.13336	-0.28061	-0.15793	-0.02533	-0.004425	-0.21622	-0.00412	-0.31723	-0.10208	0.00061	0.008392
2.285	0.014496	0.056458	-0.099792	0.017395	0.000916	0.016632	-0.25009	0.020905	-0.36194	-0.033264	-0.048828	0.01236	0.004272	-0.00885	-0.27817	0.013428	0.011597	0.12497	1.6643	0.09079	-0.028839	-0.11871	-0.10346	-0.15564	-0.024567	-0.010071	-0.28	-0.010071	-0.20706	-0.027313	0.001678	0.001221
2.286	0.006409	0.038757	-0.10757	-0.020905	0.003967	0.011597	-0.4068	0.023956	-0.38544	-0.059509	-0.17563	0.011749	0.066223	0.024109	0.19104	0.024261	-0.004272	0.10559	1.7885	0.049286	-0.031738	-0.083008	-0.13947	-0.094452	0.001068	-0.022736	0.039978	-0.003967	-0.64438	0.069122	0.001221	0.005035
2.287	0.01358	0.020294	-0.084686	-0.030823	0.003204	0.009003	-0.47714	0.030823	-0.38177	-0.018768	-0.17883	0.014496	0.006714	0.05722	0.42206	0.013885	0.010529	0.10605	1.7497	0.001068	-0.026855	-0.10559	-0.14053	-0.051727	0.016785	-0.019073	0.058136	-0.001984	-0.074005	0.052032	0.006409	-0.002441
2.288	0.00885	-0.00061	-0.067902	-0.004272	0.006409	-0.012665	-0.51895	0.028687	-0.383	-0.015564	0.012054	0.031586	-0.034485	0.036621	-0.019684	0.010376	0.015564	0.060883	1.8361	-0.1004	-0.019226	-0.029755	-0.072327	-0.084229	0.026855	-0.011597	0.10712	-0.002899	-0.11139	-0.007935	0.008698	-0.009003
2.289	0.011444	-0.019836	-0.087891	0.049591	0.001526	-0.013275	-0.48737	0.026093	-0.37567	-0.0354	-0.058746	0.020752	0.037842	0.087585	0.39764	0.02243	0.005646	0.026093	1.4957	-0.12604	-0.023651	-0.061951	-0.08316	0.007935	0.033875	-0.011749	0.062561	-0.002441	0.57297	-0.10529	-0.005951	0.001221
2.29	0.003967	-0.037842	-0.093842	0.067139	0.002594	-0.024567	-0.26642	0.020752	-0.3688	0.015564	-0.16098	-0.000458	0.046692	0.16327	-0.51376	0.007782	0.012665	-0.066071	1.0698	-0.078583	-0.042114	-0.056305	-0.055847	0.13718	0.036774	-0.017548	-0.012817	-0.006256	0.17868	-0.16708	0.004425	-0.004578
2.291	0.001984	-0.023499	-0.068359	0.058899	-0.00061	-0.015259	-0.20813	0.021057	-0.39978	0.009308	0.016022	0.013428	0.027771	0.16937	-0.40344	0.003357	0.001221	-0.094757	0.60165	0.003204	-0.061951	-0.068207	-0.015106	0.1535	0.066528	-0.010986	-0.003052	0.002747	-0.1059	-0.18677	0.005646	0.002747
2.292	0.005188	-0.042267	-0.062408	0.020905	0.004272	-0.017548	-0.20584	0.022278	-0.42999	-0.002289	0.08728	0.014191	0.058289	0.047302	-0.54001	0.006256	0.000153	-0.089264	-0.21011	-0.036621	-0.083923	-0.040283	-0.037994	0.14511	0.098114	-0.007324	0.14542	-0.003204	-0.41412	-0.14862	0.014343	0.011444
2.293	0.006104	-0.058899	-0.031891	-0.022278	-0.002747	-0.025482	-0.2713	0.023193	-0.47424	-0.056763	-0.082245	0.016174	0.14313	-0.016174	-0.20752	0.014038	-0.003662	-0.18646	-0.31815	-0.029755	-0.089874	-0.06012	-0.046539	0.10025	0.053558	-0.009766	0.35507	0.000305	-0.33341	-0.11963	0.001678	0.00061
2.294	0.009918	-0.053406	-0.046997	-0.019379	-0.000458	-0.017395	-0.38498	0.022736	-0.49805	-0.071716	-0.13306	0.011444	0.18539	-0.002136	-0.28717	0.009155	-0.002594	-0.32928	-0.27954	0.028534	-0.10651	-0.097656	-0.009003	0.092468	0.067291	-0.011292	0.69153	-0.004425	-0.069122	-0.21439	0.001678	-0.014038
2.295	0.010834	-0.06958	-0.041351	-0.027771	0.000763	-0.016327	-0.32913	0.022888	-0.54749	-0.019073	0.033264	0.010071	0.062866	0.016785	-0.02594	0.003052	0.015106	-0.32211	0.33768	0.069427	-0.11658	-0.2066	0.00412	0.0177	0.010529	-0.001984	0.50552	0.000305	-0.43625	-0.14358	0.001526	-0.002899
2.296	0.008087	-0.1004	-0.066833	-0.018768	-0.002899	0.00946	-0.14511	0.023651	-0.62866	0.003815	0.053101	0.00061	0.02182	-0.023499	0.037384	0.001221	0.013733	-0.26535	0.3923	0.003204	-0.075989	-0.21591	-0.076904	-0.018768	0.016022	-0.009155	-0.39063	-0.003052	-0.90363	-0.0914	0.004578	-0.00946
2.297	0.013428	-0.10544	-0.080414	0.014343	-0.002441	0.010834	-0.00824	0.019226	-0.71457	0.015717	-0.042267	0.00351	0.04776	-0.067444	0.004578	-0.001678	-0.010834	-0.22919	0.5397	-0.062256	0.014496	-0.081787	-0.1712	-0.00824	0.063324	-0.008545	-0.51407	-0.001984	-0.47318	-0.13351	-0.000916	0.007477
2.298	0.006866	-0.098419	-0.075989	0.011292	-0.003357	0.001221	0.12756	0.018311	-0.75974	0.015869	-0.032349	0.006104	0.064697	-0.14771	0.29266	0.00473	-0.01358	-0.17044	0.66376	-0.041351	0.03418	-0.054626	-0.096283	0.11749	0.11795	-0.007477	-0.18616	-0.003662	0.98862	-0.039368	0.001373	0.005646
2.299	0.009613	-0.1001	-0.079803	-0.012817	0.002136	0.003815	0.19989	0.008087	-0.66513	-0.030212	-0.11505	0.005035	0.082855	-0.10437	0.12863	-0.001678	-0.005493	-0.11368	0.62225	-0.033264	-0.010834	-0.063629	-0.038757	0.1294	0.1149	0.002594	-0.15076	-0.007935	1.6338	-0.073242	-0.00061	0.003815
2.3	0.011749	-0.079498	-0.080109	-0.001678	-0.010071	0.005798	0.18173	0.00946	-0.61661	-0.022736	-0.10284	-0.003357	0.05661	-0.091553	0.1619	0.005646	-0.007629	-0.012054	0.24948	0.026245	-0.07019	-0.12665	0.016632	0.1297	0.10468	0.012512	-0.12466	-0.002136	-0.78201	-0.3685	-0.001831	0.001068
2.301	0.010071	-0.09613	-0.077209	0.005035	-0.006561	-0.000916	0.21393	0.007324	-0.51209	-0.041962	-0.049286	-0.006866	0.032043	-0.12482	-0.096283	-0.003204	-0.010986	-0.03952	0.1326	-0.054779	-0.052338	-0.13031	0.057526	0.10696	0.03891	-0.006409	-0.097046	-0.001221	-2.3314	-0.31769	-0.001068	-0.000153
2.302	0.009613	-0.10681	-0.053101	0.006561	-0.00061	-0.003204	0.26093	0.012817	-0.40573	-0.035248	0.13428	-0.002441	-0.023193	-0.067139	0.03418	0.025635	-0.005188	-0.091095	0.22339	-0.088196	0.016785	-0.018005	-0.15869	0.053558	-0.005341	-0.019836	-0.10696	-0.010529	0.69946	-0.09079	-0.001221	-0.00473
